<svg width="26" height="28" viewBox="0 0 26 28" fill="none" xmlns="http://www.w3.org/2000/svg">
<path d="M25.1613 18.7412C24.0763 16.875 23.5 14.1962 23.5 11C23.5 8.21523 22.3938 5.54451 20.4246 3.57538C18.4555 1.60625 15.7848 0.5 13 0.5C10.2152 0.5 7.54451 1.60625 5.57538 3.57538C3.60625 5.54451 2.5 8.21523 2.5 11C2.5 14.1975 1.92625 16.875 0.841254 18.7412C0.619856 19.1219 0.502497 19.5541 0.500961 19.9945C0.499425 20.4348 0.613767 20.8678 0.832504 21.25C1.04986 21.6324 1.36533 21.9499 1.74636 22.1696C2.12739 22.3893 2.56017 22.5034 3 22.5H23C23.4392 22.5027 23.8712 22.3883 24.2515 22.1686C24.6318 21.9489 24.9467 21.6318 25.1638 21.25C25.3834 20.8684 25.4989 20.4356 25.4984 19.9953C25.498 19.5549 25.3817 19.1224 25.1613 18.7412ZM3.8325 19.5C4.93875 17.25 5.5 14.3925 5.5 11C5.5 9.01088 6.29018 7.10322 7.6967 5.6967C9.10323 4.29018 11.0109 3.5 13 3.5C14.9891 3.5 16.8968 4.29018 18.3033 5.6967C19.7098 7.10322 20.5 9.01088 20.5 11C20.5 14.3912 21.06 17.25 22.1663 19.5H3.8325ZM18.5 26C18.5 26.3978 18.342 26.7794 18.0607 27.0607C17.7794 27.342 17.3978 27.5 17 27.5H9C8.60218 27.5 8.22065 27.342 7.93934 27.0607C7.65804 26.7794 7.5 26.3978 7.5 26C7.5 25.6022 7.65804 25.2206 7.93934 24.9393C8.22065 24.658 8.60218 24.5 9 24.5H17C17.3978 24.5 17.7794 24.658 18.0607 24.9393C18.342 25.2206 18.5 25.6022 18.5 26Z" fill="#8BA2B4"/>
</svg>
