<svg width="40" height="40" viewBox="0 0 40 40" fill="none" xmlns="http://www.w3.org/2000/svg">
<rect width="40" height="40" rx="10" fill="#8BA2B4" fill-opacity="0.1"/>
<path d="M27.6008 22.9633C26.9227 21.7969 26.5625 20.1227 26.5625 18.125C26.5625 16.3845 25.8711 14.7153 24.6404 13.4846C23.4097 12.2539 21.7405 11.5625 20 11.5625C18.2595 11.5625 16.5903 12.2539 15.3596 13.4846C14.1289 14.7153 13.4375 16.3845 13.4375 18.125C13.4375 20.1234 13.0789 21.7969 12.4008 22.9633C12.2624 23.2012 12.1891 23.4713 12.1881 23.7465C12.1872 24.0218 12.2586 24.2924 12.3953 24.5312C12.5312 24.7702 12.7284 24.9687 12.9665 25.106C13.2046 25.2433 13.4751 25.3146 13.75 25.3125H26.25C26.5245 25.3142 26.7945 25.2427 27.0322 25.1054C27.2699 24.9681 27.4667 24.7699 27.6024 24.5312C27.7397 24.2927 27.8118 24.0223 27.8115 23.7471C27.8113 23.4718 27.7386 23.2015 27.6008 22.9633ZM14.2703 23.4375C14.9617 22.0312 15.3125 20.2453 15.3125 18.125C15.3125 16.8818 15.8064 15.6895 16.6855 14.8104C17.5645 13.9314 18.7568 13.4375 20 13.4375C21.2432 13.4375 22.4355 13.9314 23.3146 14.8104C24.1937 15.6895 24.6875 16.8818 24.6875 18.125C24.6875 20.2445 25.0375 22.0312 25.7289 23.4375H14.2703ZM23.4375 27.5C23.4375 27.7486 23.3387 27.9871 23.1629 28.1629C22.9871 28.3387 22.7487 28.4375 22.5 28.4375H17.5C17.2514 28.4375 17.0129 28.3387 16.8371 28.1629C16.6613 27.9871 16.5625 27.7486 16.5625 27.5C16.5625 27.2514 16.6613 27.0129 16.8371 26.8371C17.0129 26.6613 17.2514 26.5625 17.5 26.5625H22.5C22.7487 26.5625 22.9871 26.6613 23.1629 26.8371C23.3387 27.0129 23.4375 27.2514 23.4375 27.5Z" fill="#8BA2B4"/>
</svg>
