<svg width="40" height="40" viewBox="0 0 40 40" fill="none" xmlns="http://www.w3.org/2000/svg">
<rect width="40" height="40" rx="10" fill="#8BA2B4" fill-opacity="0.1"/>
<path d="M26.25 12.1875H24.6875V11.875C24.6875 11.6264 24.5887 11.3879 24.4129 11.2121C24.2371 11.0363 23.9986 10.9375 23.75 10.9375C23.5014 10.9375 23.2629 11.0363 23.0871 11.2121C22.9113 11.3879 22.8125 11.6264 22.8125 11.875V12.1875H17.1875V11.875C17.1875 11.6264 17.0887 11.3879 16.9129 11.2121C16.7371 11.0363 16.4986 10.9375 16.25 10.9375C16.0014 10.9375 15.7629 11.0363 15.5871 11.2121C15.4113 11.3879 15.3125 11.6264 15.3125 11.875V12.1875H13.75C13.3356 12.1875 12.9382 12.3521 12.6451 12.6451C12.3521 12.9382 12.1875 13.3356 12.1875 13.75V26.25C12.1875 26.6644 12.3521 27.0618 12.6451 27.3549C12.9382 27.6479 13.3356 27.8125 13.75 27.8125H26.25C26.6644 27.8125 27.0618 27.6479 27.3549 27.3549C27.6479 27.0618 27.8125 26.6644 27.8125 26.25V13.75C27.8125 13.3356 27.6479 12.9382 27.3549 12.6451C27.0618 12.3521 26.6644 12.1875 26.25 12.1875ZM15.3125 14.0625C15.3125 14.3111 15.4113 14.5496 15.5871 14.7254C15.7629 14.9012 16.0014 15 16.25 15C16.4986 15 16.7371 14.9012 16.9129 14.7254C17.0887 14.5496 17.1875 14.3111 17.1875 14.0625H22.8125C22.8125 14.3111 22.9113 14.5496 23.0871 14.7254C23.2629 14.9012 23.5014 15 23.75 15C23.9986 15 24.2371 14.9012 24.4129 14.7254C24.5887 14.5496 24.6875 14.3111 24.6875 14.0625H25.9375V15.9375H14.0625V14.0625H15.3125ZM14.0625 25.9375V17.8125H25.9375V25.9375H14.0625Z" fill="#8BA2B4"/>
</svg>
