<svg width="31" height="20" viewBox="0 0 31 20" fill="none" xmlns="http://www.w3.org/2000/svg">
<path d="M30.1812 2.66375C29.9345 2.53823 29.6577 2.48347 29.3817 2.50553C29.1057 2.5276 28.8412 2.62562 28.6175 2.78875L25.5 5.05375V3C25.5 2.33696 25.2366 1.70107 24.7678 1.23223C24.2989 0.763392 23.663 0.5 23 0.5H3C2.33696 0.5 1.70107 0.763392 1.23223 1.23223C0.763392 1.70107 0.5 2.33696 0.5 3V17C0.5 17.663 0.763392 18.2989 1.23223 18.7678C1.70107 19.2366 2.33696 19.5 3 19.5H23C23.663 19.5 24.2989 19.2366 24.7678 18.7678C25.2366 18.2989 25.5 17.663 25.5 17V14.9463L28.6175 17.2138C28.8413 17.3766 29.1058 17.4743 29.3818 17.4962C29.6577 17.518 29.9343 17.463 30.1809 17.3374C30.4275 17.2117 30.6346 17.0203 30.7792 16.7843C30.9237 16.5482 31.0002 16.2768 31 16V4C31 3.72344 30.9235 3.45227 30.779 3.21645C30.6345 2.98063 30.4276 2.78935 30.1812 2.66375ZM22.5 16.5H3.5V3.5H22.5V16.5ZM28 13.0537L25.5 11.2362V8.76375L28 6.94625V13.0537Z" fill="#8BA2B4"/>
</svg>
