<svg width="28" height="28" viewBox="0 0 28 28" fill="none" xmlns="http://www.w3.org/2000/svg">
<path d="M14 0.5C11.33 0.5 8.71987 1.29176 6.49981 2.77516C4.27974 4.25856 2.54942 6.36697 1.52763 8.83377C0.505849 11.3006 0.238504 14.015 0.759405 16.6337C1.28031 19.2525 2.56606 21.6579 4.45406 23.5459C6.34207 25.434 8.74754 26.7197 11.3663 27.2406C13.985 27.7615 16.6994 27.4942 19.1662 26.4724C21.633 25.4506 23.7414 23.7203 25.2248 21.5002C26.7082 19.2801 27.5 16.67 27.5 14C27.496 10.4208 26.0724 6.98932 23.5416 4.45844C21.0107 1.92756 17.5792 0.50397 14 0.5ZM14 24.5C11.9233 24.5 9.89324 23.8842 8.16652 22.7304C6.4398 21.5767 5.09399 19.9368 4.29927 18.0182C3.50455 16.0996 3.29662 13.9884 3.70176 11.9516C4.10691 9.91475 5.10693 8.04383 6.57538 6.57538C8.04384 5.10693 9.91476 4.1069 11.9516 3.70175C13.9884 3.29661 16.0996 3.50454 18.0182 4.29926C19.9368 5.09399 21.5767 6.4398 22.7304 8.16651C23.8842 9.89323 24.5 11.9233 24.5 14C24.497 16.7839 23.3898 19.4528 21.4213 21.4213C19.4529 23.3898 16.7839 24.497 14 24.5ZM18.4088 7.625L11.4088 10.625C11.0549 10.7767 10.773 11.0587 10.6213 11.4125L7.62126 18.4125C7.50527 18.6878 7.47412 18.9914 7.53179 19.2845C7.58945 19.5776 7.73331 19.8468 7.94493 20.0576C8.15656 20.2684 8.4263 20.4112 8.71961 20.4678C9.01292 20.5243 9.31643 20.492 9.59126 20.375L16.5913 17.375C16.9451 17.2233 17.227 16.9413 17.3788 16.5875L20.3788 9.5875C20.4947 9.31223 20.5259 9.00859 20.4682 8.7155C20.4106 8.42241 20.2667 8.15322 20.0551 7.9424C19.8435 7.73158 19.5737 7.58875 19.2804 7.5322C18.9871 7.47566 18.6836 7.50797 18.4088 7.625ZM14.8575 14.8612L11.8575 16.1475L13.1438 13.1475L16.1438 11.8612L14.8575 14.8612Z" fill="#8BA2B4"/>
</svg>
