<svg width="37" height="12" viewBox="0 0 37 12" fill="none" xmlns="http://www.w3.org/2000/svg">
<path d="M1.078 11V0.569999H4.494C5.57667 0.569999 6.51467 0.789333 7.308 1.228C8.11067 1.65733 8.73133 2.264 9.17 3.048C9.60867 3.832 9.828 4.742 9.828 5.778C9.828 6.80467 9.60867 7.71467 9.17 8.508C8.73133 9.292 8.11067 9.90333 7.308 10.342C6.51467 10.7807 5.57667 11 4.494 11H1.078ZM2.73 9.53H4.522C5.25933 9.53 5.89867 9.376 6.44 9.068C6.99067 8.76 7.41533 8.326 7.714 7.766C8.01267 7.206 8.162 6.54333 8.162 5.778C8.162 5.01267 8.008 4.35467 7.7 3.804C7.40133 3.244 6.98133 2.81 6.44 2.502C5.89867 2.194 5.25933 2.04 4.522 2.04H2.73V9.53ZM14.955 11.168C14.227 11.168 13.5596 10.9953 12.953 10.65C12.3556 10.3047 11.8796 9.83333 11.525 9.236C11.1703 8.63867 10.993 7.962 10.993 7.206C10.993 6.44067 11.1703 5.764 11.525 5.176C11.8796 4.57867 12.3556 4.112 12.953 3.776C13.5503 3.43067 14.2176 3.258 14.955 3.258C15.7016 3.258 16.369 3.43067 16.957 3.776C17.5543 4.112 18.0256 4.57867 18.371 5.176C18.7256 5.764 18.903 6.44067 18.903 7.206C18.903 7.97133 18.7256 8.65267 18.371 9.25C18.0163 9.84733 17.5403 10.3187 16.943 10.664C16.3456 11 15.683 11.168 14.955 11.168ZM14.955 9.698C15.403 9.698 15.7996 9.59067 16.145 9.376C16.4903 9.16133 16.761 8.86733 16.957 8.494C17.1623 8.11133 17.265 7.682 17.265 7.206C17.265 6.73 17.1623 6.30533 16.957 5.932C16.761 5.55867 16.4903 5.26467 16.145 5.05C15.7996 4.83533 15.403 4.728 14.955 4.728C14.5163 4.728 14.1196 4.83533 13.765 5.05C13.4196 5.26467 13.1443 5.55867 12.939 5.932C12.743 6.30533 12.645 6.73 12.645 7.206C12.645 7.682 12.743 8.11133 12.939 8.494C13.1443 8.86733 13.4196 9.16133 13.765 9.376C14.1196 9.59067 14.5163 9.698 14.955 9.698ZM20.4474 11V3.426H21.9594V4.91L21.7774 4.714C21.9641 4.238 22.2628 3.87867 22.6734 3.636C23.0841 3.384 23.5601 3.258 24.1014 3.258C24.6614 3.258 25.1561 3.37933 25.5854 3.622C26.0148 3.86467 26.3508 4.20067 26.5934 4.63C26.8361 5.05933 26.9574 5.554 26.9574 6.114V11H25.3894V6.534C25.3894 6.15133 25.3194 5.82933 25.1794 5.568C25.0394 5.29733 24.8388 5.092 24.5774 4.952C24.3254 4.80267 24.0361 4.728 23.7094 4.728C23.3828 4.728 23.0888 4.80267 22.8274 4.952C22.5754 5.092 22.3794 5.29733 22.2394 5.568C22.0994 5.83867 22.0294 6.16067 22.0294 6.534V11H20.4474ZM32.2066 11.168C31.4506 11.168 30.7786 10.9953 30.1906 10.65C29.6119 10.2953 29.1592 9.81933 28.8326 9.222C28.5059 8.61533 28.3426 7.93867 28.3426 7.192C28.3426 6.42667 28.5059 5.75 28.8326 5.162C29.1686 4.574 29.6166 4.112 30.1766 3.776C30.7366 3.43067 31.3712 3.258 32.0806 3.258C32.6499 3.258 33.1586 3.356 33.6066 3.552C34.0546 3.748 34.4326 4.01867 34.7406 4.364C35.0486 4.7 35.2819 5.08733 35.4406 5.526C35.6086 5.96467 35.6926 6.43133 35.6926 6.926C35.6926 7.04733 35.6879 7.17333 35.6786 7.304C35.6692 7.43467 35.6506 7.556 35.6226 7.668H29.5886V6.408H34.7266L33.9706 6.982C34.0639 6.52467 34.0312 6.11867 33.8726 5.764C33.7232 5.4 33.4899 5.11533 33.1726 4.91C32.8646 4.69533 32.5006 4.588 32.0806 4.588C31.6606 4.588 31.2872 4.69533 30.9606 4.91C30.6339 5.11533 30.3819 5.414 30.2046 5.806C30.0272 6.18867 29.9572 6.65533 29.9946 7.206C29.9479 7.71933 30.0179 8.16733 30.2046 8.55C30.4006 8.93267 30.6712 9.23133 31.0166 9.446C31.3712 9.66067 31.7726 9.768 32.2206 9.768C32.6779 9.768 33.0652 9.66533 33.3826 9.46C33.7092 9.25467 33.9659 8.98867 34.1526 8.662L35.4406 9.292C35.2912 9.64667 35.0579 9.96867 34.7406 10.258C34.4326 10.538 34.0592 10.762 33.6206 10.93C33.1912 11.0887 32.7199 11.168 32.2066 11.168Z" fill="#1E1E1E" fill-opacity="0.6"/>
</svg>
