<svg width="26" height="28" viewBox="0 0 26 28" fill="none" xmlns="http://www.w3.org/2000/svg">
<path d="M23 2.5H20.5V2C20.5 1.60218 20.342 1.22064 20.0607 0.93934C19.7794 0.658035 19.3978 0.5 19 0.5C18.6022 0.5 18.2206 0.658035 17.9393 0.93934C17.658 1.22064 17.5 1.60218 17.5 2V2.5H8.5V2C8.5 1.60218 8.34196 1.22064 8.06066 0.93934C7.77936 0.658035 7.39782 0.5 7 0.5C6.60218 0.5 6.22064 0.658035 5.93934 0.93934C5.65804 1.22064 5.5 1.60218 5.5 2V2.5H3C2.33696 2.5 1.70107 2.76339 1.23223 3.23223C0.763392 3.70107 0.5 4.33696 0.5 5V25C0.5 25.663 0.763392 26.2989 1.23223 26.7678C1.70107 27.2366 2.33696 27.5 3 27.5H23C23.663 27.5 24.2989 27.2366 24.7678 26.7678C25.2366 26.2989 25.5 25.663 25.5 25V5C25.5 4.33696 25.2366 3.70107 24.7678 3.23223C24.2989 2.76339 23.663 2.5 23 2.5ZM5.5 5.5C5.5 5.89782 5.65804 6.27936 5.93934 6.56066C6.22064 6.84196 6.60218 7 7 7C7.39782 7 7.77936 6.84196 8.06066 6.56066C8.34196 6.27936 8.5 5.89782 8.5 5.5H17.5C17.5 5.89782 17.658 6.27936 17.9393 6.56066C18.2206 6.84196 18.6022 7 19 7C19.3978 7 19.7794 6.84196 20.0607 6.56066C20.342 6.27936 20.5 5.89782 20.5 5.5H22.5V8.5H3.5V5.5H5.5ZM3.5 24.5V11.5H22.5V24.5H3.5Z" fill="#8BA2B4"/>
</svg>
