<svg width="40" height="40" viewBox="0 0 40 40" fill="none" xmlns="http://www.w3.org/2000/svg">
<rect width="40" height="40" rx="10" fill="black" fill-opacity="0.05"/>
<path d="M28.125 19.0625H27.1266C27.0454 18.4393 26.882 17.8295 26.6406 17.2492L27.5063 16.7492C27.6152 16.6889 27.7111 16.6075 27.7883 16.5097C27.8654 16.4119 27.9223 16.2998 27.9556 16.1798C27.989 16.0597 27.998 15.9343 27.9823 15.8107C27.9666 15.6872 27.9264 15.568 27.8642 15.4601C27.8019 15.3523 27.7187 15.2579 27.6196 15.1825C27.5204 15.1072 27.4072 15.0523 27.2866 15.0212C27.166 14.9901 27.0404 14.9833 26.9171 15.0012C26.7939 15.0192 26.6755 15.0615 26.5688 15.1258L25.7031 15.625C25.3198 15.1266 24.8734 14.6802 24.375 14.2969L24.8758 13.4289C24.94 13.3222 24.9824 13.2038 25.0003 13.0805C25.0183 12.9573 25.0115 12.8317 24.9804 12.7111C24.9492 12.5905 24.8944 12.4773 24.819 12.3781C24.7437 12.2789 24.6493 12.1958 24.5414 12.1335C24.4336 12.0712 24.3144 12.031 24.1908 12.0153C24.0673 11.9996 23.9418 12.0087 23.8218 12.042C23.7018 12.0753 23.5896 12.1322 23.4918 12.2094C23.3941 12.2866 23.3127 12.3824 23.2523 12.4914L22.7508 13.3594C22.1705 13.118 21.5607 12.9546 20.9375 12.8734V11.875C20.9375 11.6264 20.8387 11.3879 20.6629 11.2121C20.4871 11.0363 20.2486 10.9375 20 10.9375C19.7514 10.9375 19.5129 11.0363 19.3371 11.2121C19.1613 11.3879 19.0625 11.6264 19.0625 11.875V12.8734C18.4393 12.9546 17.8295 13.118 17.2492 13.3594L16.7492 12.4937C16.6225 12.2833 16.4182 12.131 16.1803 12.0696C15.9425 12.0082 15.69 12.0426 15.4772 12.1655C15.2645 12.2883 15.1084 12.4898 15.0427 12.7265C14.977 12.9632 15.0068 13.2163 15.1258 13.4312L15.625 14.2969C15.1266 14.6802 14.6802 15.1266 14.2969 15.625L13.432 15.1258C13.2171 15.0068 12.964 14.977 12.7273 15.0427C12.4906 15.1084 12.2891 15.2645 12.1662 15.4772C12.0434 15.69 12.0089 15.9425 12.0703 16.1803C12.1317 16.4182 12.2841 16.6225 12.4945 16.7492L13.3594 17.2492C13.118 17.8295 12.9546 18.4393 12.8734 19.0625H11.875C11.6264 19.0625 11.3879 19.1613 11.2121 19.3371C11.0363 19.5129 10.9375 19.7514 10.9375 20C10.9375 20.2486 11.0363 20.4871 11.2121 20.6629C11.3879 20.8387 11.6264 20.9375 11.875 20.9375H12.8734C12.9546 21.5607 13.118 22.1705 13.3594 22.7508L12.4937 23.2508C12.3848 23.3111 12.2889 23.3925 12.2117 23.4903C12.1346 23.5881 12.0777 23.7002 12.0444 23.8202C12.011 23.9403 12.002 24.0657 12.0177 24.1893C12.0334 24.3128 12.0736 24.432 12.1358 24.5399C12.1981 24.6477 12.2813 24.7421 12.3804 24.8175C12.4796 24.8928 12.5928 24.9477 12.7134 24.9788C12.834 25.0099 12.9596 25.0167 13.0829 24.9988C13.2061 24.9808 13.3245 24.9385 13.4312 24.8742L14.2969 24.375C14.6802 24.8734 15.1266 25.3198 15.625 25.7031L15.1242 26.5711C15.06 26.6778 15.0176 26.7962 14.9997 26.9195C14.9817 27.0427 14.9885 27.1683 15.0196 27.2889C15.0508 27.4095 15.1056 27.5227 15.181 27.6219C15.2563 27.7211 15.3507 27.8042 15.4586 27.8665C15.5664 27.9288 15.6856 27.969 15.8092 27.9847C15.9327 28.0004 16.0582 27.9913 16.1782 27.958C16.2982 27.9247 16.4104 27.8678 16.5082 27.7906C16.6059 27.7134 16.6873 27.6176 16.7477 27.5086L17.2492 26.6406C17.8295 26.882 18.4393 27.0454 19.0625 27.1266V28.125C19.0625 28.3736 19.1613 28.6121 19.3371 28.7879C19.5129 28.9637 19.7514 29.0625 20 29.0625C20.2486 29.0625 20.4871 28.9637 20.6629 28.7879C20.8387 28.6121 20.9375 28.3736 20.9375 28.125V27.1266C21.5607 27.0454 22.1705 26.882 22.7508 26.6406L23.2508 27.5063C23.3775 27.7167 23.5818 27.869 23.8197 27.9304C24.0575 27.9918 24.31 27.9574 24.5228 27.8345C24.7355 27.7117 24.8916 27.5102 24.9573 27.2735C25.023 27.0368 24.9932 26.7837 24.8742 26.5688L24.375 25.7031C24.8734 25.3198 25.3198 24.8734 25.7031 24.375L26.5711 24.8758C26.6778 24.94 26.7962 24.9824 26.9195 25.0003C27.0427 25.0183 27.1683 25.0115 27.2889 24.9804C27.4095 24.9492 27.5227 24.8944 27.6219 24.819C27.7211 24.7437 27.8042 24.6493 27.8665 24.5414C27.9288 24.4336 27.969 24.3144 27.9847 24.1908C28.0004 24.0673 27.9913 23.9418 27.958 23.8218C27.9247 23.7018 27.8678 23.5896 27.7906 23.4918C27.7134 23.3941 27.6176 23.3127 27.5086 23.2523L26.6406 22.7508C26.882 22.1705 27.0454 21.5607 27.1266 20.9375H28.125C28.3736 20.9375 28.6121 20.8387 28.7879 20.6629C28.9637 20.4871 29.0625 20.2486 29.0625 20C29.0625 19.7514 28.9637 19.5129 28.7879 19.3371C28.6121 19.1613 28.3736 19.0625 28.125 19.0625ZM20 14.6875C21.2458 14.6893 22.4514 15.1281 23.4068 15.9276C24.3622 16.7271 25.0068 17.8365 25.2281 19.0625H20.5406L18.1969 15C18.7752 14.7917 19.3854 14.686 20 14.6875ZM14.6875 20C14.6876 19.2271 14.8565 18.4635 15.1825 17.7627C15.5086 17.0619 15.9838 16.4409 16.575 15.943L18.9188 20L16.575 24.057C15.9838 23.5591 15.5086 22.9381 15.1825 22.2373C14.8565 21.5365 14.6876 20.7729 14.6875 20ZM20 25.3125C19.3856 25.3139 18.7757 25.2082 18.1977 25L20.5414 20.9375H25.2289C25.0075 22.1636 24.3629 23.2731 23.4073 24.0726C22.4518 24.8721 21.2459 25.3109 20 25.3125Z" fill="#8BA2B4"/>
</svg>
