<svg width="40" height="40" viewBox="0 0 40 40" fill="none" xmlns="http://www.w3.org/2000/svg">
<rect width="40" height="40" rx="10" fill="#8BA2B4" fill-opacity="0.1"/>
<path d="M26.25 12.8125H13.75C13.3356 12.8125 12.9382 12.9771 12.6451 13.2701C12.3521 13.5632 12.1875 13.9606 12.1875 14.375V25.625C12.1875 26.0394 12.3521 26.4368 12.6451 26.7299C12.9382 27.0229 13.3356 27.1875 13.75 27.1875H26.25C26.6644 27.1875 27.0618 27.0229 27.3549 26.7299C27.6479 26.4368 27.8125 26.0394 27.8125 25.625V14.375C27.8125 13.9606 27.6479 13.5632 27.3549 13.2701C27.0618 12.9771 26.6644 12.8125 26.25 12.8125ZM25.9375 14.6875V19.0625H14.0625V14.6875H25.9375ZM14.0625 25.3125V20.9375H25.9375V25.3125H14.0625ZM22.5 16.875C22.5 16.6278 22.5733 16.3861 22.7107 16.1805C22.848 15.975 23.0432 15.8148 23.2716 15.7202C23.5001 15.6255 23.7514 15.6008 23.9939 15.649C24.2363 15.6972 24.4591 15.8163 24.6339 15.9911C24.8087 16.1659 24.9278 16.3887 24.976 16.6311C25.0242 16.8736 24.9995 17.1249 24.9049 17.3534C24.8102 17.5818 24.65 17.777 24.4445 17.9143C24.2389 18.0517 23.9972 18.125 23.75 18.125C23.4185 18.125 23.1005 17.9933 22.8661 17.7589C22.6317 17.5245 22.5 17.2065 22.5 16.875ZM25 23.125C25 23.3722 24.9267 23.6139 24.7893 23.8195C24.652 24.025 24.4568 24.1852 24.2284 24.2799C23.9999 24.3745 23.7486 24.3992 23.5061 24.351C23.2637 24.3028 23.0409 24.1837 22.8661 24.0089C22.6913 23.8341 22.5722 23.6113 22.524 23.3689C22.4758 23.1264 22.5005 22.8751 22.5951 22.6466C22.6898 22.4182 22.85 22.223 23.0555 22.0857C23.2611 21.9483 23.5028 21.875 23.75 21.875C24.0815 21.875 24.3995 22.0067 24.6339 22.2411C24.8683 22.4755 25 22.7935 25 23.125Z" fill="#8BA2B4"/>
</svg>
