<svg width="40" height="40" viewBox="0 0 40 40" fill="none" xmlns="http://www.w3.org/2000/svg">
<rect width="40" height="40" rx="10" fill="#8BA2B4" fill-opacity="0.1"/>
<path d="M28.9633 26.4555L24.5883 17.7055C24.5104 17.5499 24.3907 17.419 24.2426 17.3276C24.0946 17.2362 23.924 17.1877 23.75 17.1877C23.576 17.1877 23.4054 17.2362 23.2574 17.3276C23.1093 17.419 22.9896 17.5499 22.9117 17.7055L21.3086 20.9086C20.2286 20.8142 19.1886 20.4543 18.2812 19.8609C19.3839 18.5787 20.0736 16.9933 20.2602 15.3125H21.875C22.1236 15.3125 22.3621 15.2137 22.5379 15.0379C22.7137 14.8621 22.8125 14.6236 22.8125 14.375C22.8125 14.1264 22.7137 13.8879 22.5379 13.7121C22.3621 13.5363 22.1236 13.4375 21.875 13.4375H17.8125V12.5C17.8125 12.2514 17.7137 12.0129 17.5379 11.8371C17.3621 11.6613 17.1236 11.5625 16.875 11.5625C16.6264 11.5625 16.3879 11.6613 16.2121 11.8371C16.0363 12.0129 15.9375 12.2514 15.9375 12.5V13.4375H11.875C11.6264 13.4375 11.3879 13.5363 11.2121 13.7121C11.0363 13.8879 10.9375 14.1264 10.9375 14.375C10.9375 14.6236 11.0363 14.8621 11.2121 15.0379C11.3879 15.2137 11.6264 15.3125 11.875 15.3125H18.3695C18.1937 16.5343 17.6755 17.6814 16.875 18.6211C16.4843 18.164 16.1584 17.6553 15.9062 17.1094C15.8569 16.9946 15.785 16.8908 15.6949 16.8041C15.6049 16.7175 15.4984 16.6497 15.3817 16.6048C15.2651 16.56 15.1406 16.5388 15.0157 16.5427C14.8908 16.5467 14.7679 16.5755 14.6543 16.6276C14.5407 16.6797 14.4386 16.754 14.3542 16.8461C14.2697 16.9382 14.2045 17.0463 14.1623 17.1639C14.1202 17.2816 14.1021 17.4065 14.1089 17.5313C14.1158 17.6561 14.1476 17.7783 14.2023 17.8906C14.5303 18.6038 14.9566 19.2676 15.4688 19.8625C14.4018 20.5648 13.1523 20.9385 11.875 20.9375C11.6264 20.9375 11.3879 21.0363 11.2121 21.2121C11.0363 21.3879 10.9375 21.6264 10.9375 21.875C10.9375 22.1236 11.0363 22.3621 11.2121 22.5379C11.3879 22.7137 11.6264 22.8125 11.875 22.8125C13.675 22.814 15.4279 22.2369 16.875 21.1664C17.9245 21.9387 19.138 22.4584 20.4211 22.6852L18.5359 26.4555C18.4773 26.5659 18.4414 26.6869 18.4303 26.8115C18.4192 26.936 18.4331 27.0615 18.4712 27.1806C18.5093 27.2996 18.5708 27.4099 18.6522 27.5048C18.7335 27.5998 18.833 27.6775 18.9448 27.7334C19.0567 27.7893 19.1785 27.8223 19.3033 27.8304C19.428 27.8385 19.5532 27.8216 19.6713 27.7806C19.7894 27.7396 19.8981 27.6755 19.9911 27.5919C20.084 27.5082 20.1593 27.4069 20.2125 27.2937L21.2039 25.3125H26.2953L27.2859 27.2937C27.341 27.4039 27.4172 27.5021 27.5102 27.5828C27.6032 27.6635 27.7112 27.7251 27.828 27.764C27.9448 27.803 28.0681 27.8185 28.1909 27.8098C28.3137 27.8011 28.4336 27.7683 28.5438 27.7133C28.6539 27.6582 28.7521 27.582 28.8328 27.489C28.9135 27.396 28.9751 27.2881 29.014 27.1713C29.053 27.0545 29.0685 26.9311 29.0598 26.8083C29.0511 26.6855 29.0183 26.5656 28.9633 26.4555ZM22.1414 23.4375L23.75 20.2211L25.3578 23.4375H22.1414Z" fill="#8BA2B4"/>
</svg>
