<svg width="40" height="40" viewBox="0 0 40 40" fill="none" xmlns="http://www.w3.org/2000/svg">
<rect width="40" height="40" rx="10" fill="#8BA2B4" fill-opacity="0.1"/>
<path d="M28.125 22.1875H27.8125V15.625C27.8125 15.0448 27.582 14.4884 27.1718 14.0782C26.7616 13.668 26.2052 13.4375 25.625 13.4375H14.375C13.7948 13.4375 13.2384 13.668 12.8282 14.0782C12.418 14.4884 12.1875 15.0448 12.1875 15.625V22.1875H11.875C11.6264 22.1875 11.3879 22.2863 11.2121 22.4621C11.0363 22.6379 10.9375 22.8764 10.9375 23.125V25C10.9375 25.5802 11.168 26.1366 11.5782 26.5468C11.9884 26.957 12.5448 27.1875 13.125 27.1875H26.875C27.4552 27.1875 28.0116 26.957 28.4218 26.5468C28.832 26.1366 29.0625 25.5802 29.0625 25V23.125C29.0625 22.8764 28.9637 22.6379 28.7879 22.4621C28.6121 22.2863 28.3736 22.1875 28.125 22.1875ZM14.0625 15.625C14.0625 15.5421 14.0954 15.4626 14.154 15.404C14.2126 15.3454 14.2921 15.3125 14.375 15.3125H25.625C25.7079 15.3125 25.7874 15.3454 25.846 15.404C25.9046 15.4626 25.9375 15.5421 25.9375 15.625V22.1875H14.0625V15.625ZM27.1875 25C27.1875 25.0829 27.1546 25.1624 27.096 25.221C27.0374 25.2796 26.9579 25.3125 26.875 25.3125H13.125C13.0421 25.3125 12.9626 25.2796 12.904 25.221C12.8454 25.1624 12.8125 25.0829 12.8125 25V24.0625H27.1875V25ZM22.1875 17.5C22.1875 17.7486 22.0887 17.9871 21.9129 18.1629C21.7371 18.3387 21.4986 18.4375 21.25 18.4375H18.75C18.5014 18.4375 18.2629 18.3387 18.0871 18.1629C17.9113 17.9871 17.8125 17.7486 17.8125 17.5C17.8125 17.2514 17.9113 17.0129 18.0871 16.8371C18.2629 16.6613 18.5014 16.5625 18.75 16.5625H21.25C21.4986 16.5625 21.7371 16.6613 21.9129 16.8371C22.0887 17.0129 22.1875 17.2514 22.1875 17.5Z" fill="#8BA2B4"/>
</svg>
