<svg width="40" height="40" viewBox="0 0 40 40" fill="none" xmlns="http://www.w3.org/2000/svg">
<rect width="40" height="40" rx="10" fill="#8BA2B4" fill-opacity="0.1"/>
<path d="M26.25 15.9375H24.0625V14.375C24.0625 13.2976 23.6345 12.2642 22.8726 11.5024C22.1108 10.7405 21.0774 10.3125 20 10.3125C18.9226 10.3125 17.8892 10.7405 17.1274 11.5024C16.3655 12.2642 15.9375 13.2976 15.9375 14.375V15.9375H13.75C13.3356 15.9375 12.9382 16.1021 12.6451 16.3951C12.3521 16.6882 12.1875 17.0856 12.1875 17.5V26.25C12.1875 26.6644 12.3521 27.0618 12.6451 27.3549C12.9382 27.6479 13.3356 27.8125 13.75 27.8125H26.25C26.6644 27.8125 27.0618 27.6479 27.3549 27.3549C27.6479 27.0618 27.8125 26.6644 27.8125 26.25V17.5C27.8125 17.0856 27.6479 16.6882 27.3549 16.3951C27.0618 16.1021 26.6644 15.9375 26.25 15.9375ZM17.8125 14.375C17.8125 13.7948 18.043 13.2384 18.4532 12.8282C18.8634 12.418 19.4198 12.1875 20 12.1875C20.5802 12.1875 21.1366 12.418 21.5468 12.8282C21.957 13.2384 22.1875 13.7948 22.1875 14.375V15.9375H17.8125V14.375ZM25.9375 25.9375H14.0625V17.8125H25.9375V25.9375ZM20 18.75C19.42 18.7502 18.8581 18.9521 18.4106 19.3211C17.9631 19.69 17.6578 20.2031 17.547 20.7724C17.4362 21.3417 17.5268 21.9319 17.8033 22.4417C18.0797 22.9516 18.5249 23.3495 19.0625 23.5672V24.0625C19.0625 24.3111 19.1613 24.5496 19.3371 24.7254C19.5129 24.9012 19.7514 25 20 25C20.2486 25 20.4871 24.9012 20.6629 24.7254C20.8387 24.5496 20.9375 24.3111 20.9375 24.0625V23.5672C21.4751 23.3495 21.9203 22.9516 22.1967 22.4417C22.4732 21.9319 22.5638 21.3417 22.453 20.7724C22.3422 20.2031 22.0369 19.69 21.5894 19.3211C21.1419 18.9521 20.58 18.7502 20 18.75ZM20 20.625C20.1236 20.625 20.2445 20.6617 20.3472 20.7303C20.45 20.799 20.5301 20.8966 20.5774 21.0108C20.6247 21.125 20.6371 21.2507 20.613 21.3719C20.5889 21.4932 20.5294 21.6045 20.4419 21.6919C20.3545 21.7794 20.2432 21.8389 20.1219 21.863C20.0007 21.8871 19.875 21.8747 19.7608 21.8274C19.6466 21.7801 19.549 21.7 19.4803 21.5972C19.4117 21.4945 19.375 21.3736 19.375 21.25C19.375 21.0842 19.4408 20.9253 19.5581 20.8081C19.6753 20.6908 19.8342 20.625 20 20.625Z" fill="#8BA2B4"/>
</svg>
