<svg width="14" height="14" viewBox="0 0 14 14" fill="none" xmlns="http://www.w3.org/2000/svg">
<path d="M13.5306 12.4694L10.5625 9.50001C11.4524 8.3403 11.8679 6.8855 11.7247 5.43072C11.5814 3.97594 10.8902 2.63011 9.79113 1.66625C8.69209 0.702387 7.26757 0.192664 5.80654 0.24048C4.34551 0.288296 2.95736 0.890071 1.9237 1.92373C0.890041 2.95739 0.288266 4.34554 0.24045 5.80657C0.192633 7.2676 0.702356 8.69212 1.66622 9.79116C2.63008 10.8902 3.97591 11.5814 5.43069 11.7247C6.88547 11.8679 8.34027 11.4524 9.49998 10.5625L12.4706 13.5338C12.5404 13.6035 12.6232 13.6589 12.7143 13.6966C12.8055 13.7344 12.9032 13.7538 13.0019 13.7538C13.1005 13.7538 13.1982 13.7344 13.2894 13.6966C13.3805 13.6589 13.4633 13.6035 13.5331 13.5338C13.6029 13.464 13.6582 13.3812 13.696 13.29C13.7337 13.1989 13.7532 13.1012 13.7532 13.0025C13.7532 12.9038 13.7337 12.8061 13.696 12.715C13.6582 12.6238 13.6029 12.541 13.5331 12.4713L13.5306 12.4694ZM1.74998 6.00001C1.74998 5.15944 1.99923 4.33774 2.46623 3.63883C2.93323 2.93992 3.59698 2.39519 4.37357 2.07352C5.15016 1.75185 6.00469 1.66768 6.82911 1.83167C7.65353 1.99566 8.41081 2.40043 9.00518 2.9948C9.59955 3.58918 10.0043 4.34645 10.1683 5.17087C10.3323 5.99529 10.2481 6.84982 9.92646 7.62641C9.60479 8.403 9.06006 9.06676 8.36115 9.53375C7.66224 10.0007 6.84055 10.25 5.99998 10.25C4.87316 10.2488 3.79283 9.80071 2.99605 9.00393C2.19927 8.20715 1.75113 7.12682 1.74998 6.00001Z" fill="#1E1E1E" fill-opacity="0.5"/>
</svg>
