<svg width="26" height="26" viewBox="0 0 26 26" fill="none" xmlns="http://www.w3.org/2000/svg">
<path d="M25.5 3V6.5C25.5 6.89782 25.342 7.27936 25.0607 7.56066C24.7794 7.84196 24.3978 8 24 8C23.6022 8 23.2206 7.84196 22.9393 7.56066C22.658 7.27936 22.5 6.89782 22.5 6.5V3.5H19.5C19.1022 3.5 18.7206 3.34196 18.4393 3.06066C18.158 2.77936 18 2.39782 18 2C18 1.60218 18.158 1.22064 18.4393 0.93934C18.7206 0.658035 19.1022 0.5 19.5 0.5H23C23.663 0.5 24.2989 0.763392 24.7678 1.23223C25.2366 1.70107 25.5 2.33696 25.5 3ZM24 18C23.6022 18 23.2206 18.158 22.9393 18.4393C22.658 18.7206 22.5 19.1022 22.5 19.5V22.5H19.5C19.1022 22.5 18.7206 22.658 18.4393 22.9393C18.158 23.2206 18 23.6022 18 24C18 24.3978 18.158 24.7794 18.4393 25.0607C18.7206 25.342 19.1022 25.5 19.5 25.5H23C23.663 25.5 24.2989 25.2366 24.7678 24.7678C25.2366 24.2989 25.5 23.663 25.5 23V19.5C25.5 19.1022 25.342 18.7206 25.0607 18.4393C24.7794 18.158 24.3978 18 24 18ZM6.5 22.5H3.5V19.5C3.5 19.1022 3.34196 18.7206 3.06066 18.4393C2.77936 18.158 2.39782 18 2 18C1.60218 18 1.22064 18.158 0.93934 18.4393C0.658035 18.7206 0.5 19.1022 0.5 19.5V23C0.5 23.663 0.763392 24.2989 1.23223 24.7678C1.70107 25.2366 2.33696 25.5 3 25.5H6.5C6.89782 25.5 7.27936 25.342 7.56066 25.0607C7.84196 24.7794 8 24.3978 8 24C8 23.6022 7.84196 23.2206 7.56066 22.9393C7.27936 22.658 6.89782 22.5 6.5 22.5ZM2 8C2.39782 8 2.77936 7.84196 3.06066 7.56066C3.34196 7.27936 3.5 6.89782 3.5 6.5V3.5H6.5C6.89782 3.5 7.27936 3.34196 7.56066 3.06066C7.84196 2.77936 8 2.39782 8 2C8 1.60218 7.84196 1.22064 7.56066 0.93934C7.27936 0.658035 6.89782 0.5 6.5 0.5H3C2.33696 0.5 1.70107 0.763392 1.23223 1.23223C0.763392 1.70107 0.5 2.33696 0.5 3V6.5C0.5 6.89782 0.658035 7.27936 0.93934 7.56066C1.22064 7.84196 1.60218 8 2 8ZM19 19.5C18.7672 19.5001 18.5376 19.4461 18.3294 19.3422C18.1211 19.2383 17.9398 19.0873 17.8 18.9013C17.2412 18.1556 16.5163 17.5504 15.683 17.1335C14.8496 16.7166 13.9306 16.4996 12.9987 16.4996C12.0669 16.4996 11.1479 16.7166 10.3145 17.1335C9.48116 17.5504 8.75634 18.1556 8.1975 18.9013C7.95559 19.2111 7.60172 19.4136 7.21203 19.4652C6.82234 19.5168 6.42797 19.4133 6.11377 19.1771C5.79958 18.9409 5.59066 18.5908 5.53198 18.2021C5.4733 17.8134 5.56954 17.4172 5.8 17.0987C6.5956 16.0346 7.61663 15.1596 8.79 14.5362C8.11563 13.7346 7.68421 12.7571 7.54649 11.7187C7.40877 10.6802 7.57047 9.62402 8.01258 8.67433C8.45469 7.72465 9.15882 6.92098 10.0421 6.35785C10.9254 5.79473 11.9512 5.49557 12.9987 5.49557C14.0463 5.49557 15.0721 5.79473 15.9554 6.35785C16.8387 6.92098 17.5428 7.72465 17.9849 8.67433C18.427 9.62402 18.5887 10.6802 18.451 11.7187C18.3133 12.7571 17.8819 13.7346 17.2075 14.5362C18.3809 15.1596 19.4019 16.0346 20.1975 17.0987C20.3649 17.3214 20.4669 17.5863 20.4922 17.8637C20.5175 18.1412 20.4651 18.4201 20.3408 18.6694C20.2165 18.9187 20.0252 19.1285 19.7884 19.2752C19.5516 19.4219 19.2786 19.4997 19 19.5ZM13 13.5C13.4945 13.5 13.9778 13.3534 14.3889 13.0787C14.8 12.804 15.1205 12.4135 15.3097 11.9567C15.4989 11.4999 15.5484 10.9972 15.452 10.5123C15.3555 10.0273 15.1174 9.58186 14.7678 9.23223C14.4181 8.8826 13.9727 8.6445 13.4877 8.54804C13.0028 8.45157 12.5001 8.50108 12.0433 8.6903C11.5865 8.87952 11.196 9.19995 10.9213 9.61107C10.6466 10.0222 10.5 10.5055 10.5 11C10.5 11.663 10.7634 12.2989 11.2322 12.7678C11.7011 13.2366 12.337 13.5 13 13.5Z" fill="#8BA2B4"/>
</svg>
