<svg width="32" height="32" viewBox="0 0 32 32" fill="none" xmlns="http://www.w3.org/2000/svg">
<path d="M31.8751 24.3913L23.8751 6.39126C23.757 6.12536 23.5641 5.89953 23.32 5.74129C23.0759 5.58305 22.791 5.49921 22.5001 5.50001H9.50005C9.21545 5.5003 8.93681 5.58155 8.69666 5.73427C8.45651 5.887 8.26476 6.10489 8.1438 6.36251C8.13829 6.37181 8.13329 6.38141 8.1288 6.39126L8.12505 6.41251L0.125054 24.3913C0.0235054 24.6199 -0.0192214 24.8704 0.000764521 25.1198C0.0207504 25.3692 0.102814 25.6097 0.239482 25.8193C0.37615 26.0289 0.563081 26.201 0.783251 26.3199C1.00342 26.4388 1.24983 26.5007 1.50005 26.5H30.5001C30.7503 26.5007 30.9967 26.4388 31.2169 26.3199C31.437 26.201 31.624 26.0289 31.7606 25.8193C31.8973 25.6097 31.9794 25.3692 31.9993 25.1198C32.0193 24.8704 31.9766 24.6199 31.8751 24.3913ZM8.00005 14.0688V23.5H3.80755L8.00005 14.0688ZM11.0001 23.5V14.0688L15.1926 23.5H11.0001ZM18.4751 23.5L11.8088 8.50001H21.5251L28.1926 23.5H18.4751Z" fill="#002D1B"/>
</svg>
